<svg width="20" height="20" viewBox="0 0 20 20" fill="none" xmlns="http://www.w3.org/2000/svg">
<path d="M14.3852 11.539C14.2995 11.6143 14.2358 11.7113 14.2009 11.8198C14.1659 11.9284 14.161 12.0443 14.1867 12.1554L15.243 16.7289C15.2709 16.8483 15.263 16.9733 15.2204 17.0883C15.1777 17.2034 15.1022 17.3033 15.0032 17.3757C14.9041 17.4481 14.786 17.4897 14.6634 17.4954C14.5409 17.5011 14.4194 17.4706 14.3141 17.4078L10.3219 14.9859C10.2249 14.9269 10.1135 14.8957 10 14.8957C9.88648 14.8957 9.77513 14.9269 9.67813 14.9859L5.68594 17.4078C5.58061 17.4706 5.4591 17.5011 5.33657 17.4954C5.21403 17.4897 5.09588 17.4481 4.99685 17.3757C4.89781 17.3033 4.82226 17.2034 4.77962 17.0883C4.73698 16.9733 4.72912 16.8483 4.75704 16.7289L5.81329 12.1554C5.83896 12.0443 5.83407 11.9284 5.79913 11.8198C5.76419 11.7113 5.70051 11.6143 5.61485 11.539L2.09063 8.46479C1.99641 8.38471 1.92806 8.27849 1.89424 8.15955C1.86041 8.04062 1.86262 7.91432 1.90059 7.79664C1.93856 7.67896 2.01059 7.57519 2.10755 7.49846C2.20452 7.42173 2.32206 7.37548 2.44532 7.36558L7.09063 6.96401C7.20397 6.95392 7.31239 6.91307 7.40422 6.84589C7.49605 6.7787 7.5678 6.68772 7.61172 6.58276L9.42657 2.25776C9.47504 2.14594 9.55515 2.05074 9.65703 1.98386C9.75892 1.91698 9.87813 1.88135 10 1.88135C10.1219 1.88135 10.2411 1.91698 10.343 1.98386C10.4449 2.05074 10.525 2.14594 10.5734 2.25776L12.3883 6.58276C12.4322 6.68772 12.504 6.7787 12.5958 6.84589C12.6876 6.91307 12.796 6.95392 12.9094 6.96401L17.5547 7.36558C17.6779 7.37548 17.7955 7.42173 17.8925 7.49846C17.9894 7.57519 18.0615 7.67896 18.0994 7.79664C18.1374 7.91432 18.1396 8.04062 18.1058 8.15955C18.0719 8.27849 18.0036 8.38471 17.9094 8.46479L14.3852 11.539Z" fill="#1C1C1C" fill-opacity="0.1"/>
<path d="M18.6875 7.60075C18.6118 7.36745 18.4692 7.16158 18.2773 7.00877C18.0855 6.85597 17.8529 6.76297 17.6086 6.74137L12.9688 6.34137L11.15 2.01637C11.0553 1.78943 10.8956 1.59558 10.691 1.45923C10.4863 1.32288 10.2459 1.25012 10 1.25012C9.7541 1.25012 9.51369 1.32288 9.30905 1.45923C9.10441 1.59558 8.94469 1.78943 8.85 2.01637L7.03672 6.34137L2.39141 6.74372C2.14612 6.76433 1.91238 6.8569 1.7195 7.00982C1.52662 7.16275 1.38318 7.36921 1.30717 7.60333C1.23116 7.83745 1.22596 8.0888 1.29223 8.32586C1.3585 8.56292 1.49329 8.77514 1.67969 8.9359L5.20391 12.0156L4.14766 16.589C4.09181 16.8284 4.10774 17.0788 4.19348 17.3092C4.27921 17.5395 4.43094 17.7394 4.62969 17.884C4.82843 18.0285 5.06539 18.1113 5.31092 18.1219C5.55645 18.1326 5.79967 18.0706 6.01016 17.9437L9.99453 15.5218L13.9875 17.9437C14.198 18.0706 14.4412 18.1326 14.6867 18.1219C14.9323 18.1113 15.1692 18.0285 15.368 17.884C15.5667 17.7394 15.7184 17.5395 15.8042 17.3092C15.8899 17.0788 15.9059 16.8284 15.85 16.589L14.7945 12.0109L18.318 8.9359C18.5043 8.77459 18.6389 8.56176 18.7046 8.3242C18.7704 8.08664 18.7644 7.83494 18.6875 7.60075ZM17.4984 7.99137L13.975 11.0664C13.8035 11.2155 13.6759 11.4086 13.606 11.6249C13.5361 11.8412 13.5264 12.0724 13.5781 12.2937L14.6367 16.875L10.6469 14.4531C10.4522 14.3345 10.2287 14.2718 10.0008 14.2718C9.77287 14.2718 9.54935 14.3345 9.35469 14.4531L5.37031 16.875L6.42188 12.2968C6.47356 12.0755 6.46391 11.8443 6.39398 11.628C6.32405 11.4118 6.19649 11.2187 6.025 11.0695L2.5 7.99606C2.49972 7.99373 2.49972 7.99136 2.5 7.98903L7.14375 7.58747C7.37047 7.56748 7.58743 7.48598 7.77123 7.35174C7.95503 7.21751 8.09869 7.03564 8.18672 6.82575L10 2.50622L11.8125 6.82575C11.9005 7.03564 12.0442 7.21751 12.228 7.35174C12.4118 7.48598 12.6287 7.56748 12.8555 7.58747L17.5 7.98903C17.5 7.98903 17.5 7.99372 17.5 7.9945L17.4984 7.99137Z" fill="#1C1C1C"/>
</svg>
